<svg xmlns="http://www.w3.org/2000/svg" xmlns:xlink="http://www.w3.org/1999/xlink" width="500" zoomAndPan="magnify" viewBox="0 0 375 374.999991" height="500" preserveAspectRatio="xMidYMid meet" version="1.0"><defs><g/><clipPath id="dfaa39ac14"><path d="M 157.214844 132 L 178 132 L 178 162 L 157.214844 162 Z M 157.214844 132 " clip-rule="nonzero"/></clipPath><clipPath id="f10fd21aa3"><path d="M 157.214844 131 L 179 131 L 179 163 L 157.214844 163 Z M 157.214844 131 " clip-rule="nonzero"/></clipPath><clipPath id="ce02d376b2"><path d="M 197 132 L 217.964844 132 L 217.964844 162 L 197 162 Z M 197 132 " clip-rule="nonzero"/></clipPath><clipPath id="f5e7b6c5ff"><path d="M 196 131 L 217.964844 131 L 217.964844 163 L 196 163 Z M 196 131 " clip-rule="nonzero"/></clipPath><clipPath id="06602e4744"><path d="M 176 123.375 L 198 123.375 L 198 170.625 L 176 170.625 Z M 176 123.375 " clip-rule="nonzero"/></clipPath></defs><g clip-path="url(#dfaa39ac14)"><path fill="#03fa6e" d="M 176.320312 161.707031 C 175.988281 161.707031 175.65625 161.59375 175.394531 161.386719 L 158.457031 148.058594 C 158.09375 147.773438 157.882812 147.34375 157.882812 146.882812 C 157.882812 146.417969 158.09375 145.988281 158.457031 145.703125 L 175.394531 132.378906 C 175.65625 132.167969 175.988281 132.058594 176.320312 132.058594 C 176.785156 132.058594 177.214844 132.261719 177.5 132.628906 C 177.746094 132.941406 177.859375 133.335938 177.8125 133.734375 C 177.765625 134.132812 177.5625 134.488281 177.25 134.734375 L 161.8125 146.882812 L 177.25 159.027344 C 177.5625 159.277344 177.765625 159.632812 177.8125 160.027344 C 177.859375 160.425781 177.746094 160.816406 177.5 161.136719 C 177.214844 161.496094 176.785156 161.707031 176.320312 161.707031 " fill-opacity="1" fill-rule="nonzero"/></g><g clip-path="url(#f10fd21aa3)"><path fill="#2a446b" d="M 176.320312 131.417969 C 175.84375 131.417969 175.375 131.578125 175 131.875 L 158.0625 145.199219 C 157.542969 145.613281 157.246094 146.222656 157.246094 146.882812 C 157.246094 147.542969 157.542969 148.15625 158.0625 148.5625 L 175 161.886719 C 175.375 162.183594 175.84375 162.347656 176.320312 162.347656 C 176.984375 162.347656 177.597656 162.046875 178.003906 161.527344 C 178.359375 161.082031 178.511719 160.523438 178.445312 159.953125 C 178.378906 159.386719 178.09375 158.878906 177.644531 158.527344 L 162.84375 146.882812 L 177.644531 135.238281 C 178.09375 134.882812 178.378906 134.375 178.445312 133.808594 C 178.511719 133.242188 178.359375 132.683594 178.003906 132.234375 C 177.597656 131.714844 176.980469 131.417969 176.320312 131.417969 Z M 176.320312 132.695312 C 176.578125 132.695312 176.828125 132.808594 177 133.023438 C 177.292969 133.398438 177.226562 133.941406 176.855469 134.234375 L 160.777344 146.882812 L 176.855469 159.53125 C 177.226562 159.824219 177.292969 160.367188 177 160.738281 C 176.828125 160.957031 176.578125 161.070312 176.320312 161.070312 C 176.132812 161.070312 175.949219 161.007812 175.789062 160.882812 L 158.851562 147.558594 C 158.644531 147.394531 158.523438 147.144531 158.523438 146.882812 C 158.523438 146.617188 158.644531 146.367188 158.851562 146.203125 L 175.789062 132.878906 C 175.945312 132.753906 176.132812 132.695312 176.320312 132.695312 " fill-opacity="1" fill-rule="nonzero"/></g><g clip-path="url(#ce02d376b2)"><path fill="#03fa6e" d="M 198.667969 161.707031 C 198.207031 161.707031 197.777344 161.496094 197.488281 161.136719 C 196.976562 160.484375 197.089844 159.539062 197.742188 159.027344 L 213.179688 146.882812 L 197.742188 134.734375 C 197.089844 134.222656 196.976562 133.277344 197.488281 132.628906 C 197.777344 132.261719 198.207031 132.058594 198.667969 132.058594 C 199.003906 132.058594 199.332031 132.167969 199.597656 132.378906 L 216.535156 145.703125 C 216.898438 145.988281 217.105469 146.417969 217.105469 146.882812 C 217.105469 147.34375 216.898438 147.773438 216.53125 148.058594 L 199.597656 161.386719 C 199.332031 161.59375 199.003906 161.707031 198.667969 161.707031 " fill-opacity="1" fill-rule="nonzero"/></g><g clip-path="url(#f5e7b6c5ff)"><path fill="#2a446b" d="M 198.667969 131.417969 C 198.007812 131.417969 197.394531 131.714844 196.988281 132.234375 C 196.257812 133.160156 196.417969 134.507812 197.34375 135.238281 L 212.144531 146.882812 L 197.34375 158.527344 C 196.417969 159.253906 196.257812 160.601562 196.988281 161.527344 C 197.394531 162.046875 198.007812 162.347656 198.667969 162.347656 C 199.148438 162.347656 199.613281 162.183594 199.988281 161.886719 L 216.929688 148.5625 C 217.445312 148.15625 217.742188 147.542969 217.742188 146.882812 C 217.742188 146.222656 217.445312 145.613281 216.929688 145.199219 L 199.992188 131.875 C 199.617188 131.578125 199.148438 131.417969 198.667969 131.417969 Z M 198.667969 132.695312 C 198.855469 132.695312 199.042969 132.753906 199.199219 132.878906 L 216.140625 146.203125 C 216.347656 146.367188 216.464844 146.617188 216.464844 146.882812 C 216.464844 147.144531 216.347656 147.394531 216.140625 147.558594 L 199.199219 160.882812 C 199.042969 161.007812 198.855469 161.070312 198.667969 161.070312 C 198.414062 161.070312 198.160156 160.957031 197.992188 160.738281 C 197.699219 160.367188 197.761719 159.824219 198.136719 159.53125 L 214.210938 146.882812 L 198.136719 134.234375 C 197.761719 133.941406 197.699219 133.398438 197.992188 133.023438 C 198.160156 132.808594 198.414062 132.695312 198.667969 132.695312 " fill-opacity="1" fill-rule="nonzero"/></g><path fill="#03fa6e" d="M 179.078125 169.75 C 178.890625 169.75 178.710938 169.710938 178.535156 169.644531 C 178.164062 169.5 177.867188 169.21875 177.707031 168.855469 C 177.542969 168.484375 177.535156 168.078125 177.679688 167.707031 L 194.21875 124.972656 C 194.441406 124.402344 195.003906 124.015625 195.617188 124.015625 C 195.804688 124.015625 195.988281 124.050781 196.164062 124.117188 C 196.929688 124.417969 197.316406 125.289062 197.019531 126.058594 L 180.476562 168.789062 C 180.257812 169.363281 179.691406 169.75 179.078125 169.75 " fill-opacity="1" fill-rule="nonzero"/><g clip-path="url(#06602e4744)"><path fill="#2a446b" d="M 195.617188 123.375 C 194.742188 123.375 193.9375 123.929688 193.625 124.742188 L 177.082031 167.472656 C 176.878906 168.007812 176.890625 168.589844 177.121094 169.113281 C 177.351562 169.632812 177.773438 170.035156 178.304688 170.242188 C 178.554688 170.339844 178.8125 170.386719 179.078125 170.386719 C 179.953125 170.386719 180.757812 169.835938 181.074219 169.019531 L 197.613281 126.289062 C 198.039062 125.1875 197.492188 123.945312 196.390625 123.523438 C 196.144531 123.425781 195.882812 123.375 195.617188 123.375 Z M 195.617188 124.652344 C 195.722656 124.652344 195.828125 124.675781 195.929688 124.714844 C 196.375 124.882812 196.59375 125.382812 196.421875 125.828125 L 179.878906 168.558594 C 179.75 168.898438 179.421875 169.109375 179.078125 169.109375 C 178.972656 169.109375 178.867188 169.089844 178.765625 169.050781 C 178.320312 168.878906 178.101562 168.378906 178.277344 167.9375 L 194.816406 125.207031 C 194.949219 124.863281 195.273438 124.652344 195.617188 124.652344 " fill-opacity="1" fill-rule="nonzero"/></g><g fill="#ffffff" fill-opacity="1"><g transform="translate(56.984177, 223.857597)"><g><path d="M 9.53125 0.53125 C 7.34375 0.53125 5.445312 0.25 3.84375 -0.3125 C 2.25 -0.875 0.992188 -1.515625 0.078125 -2.234375 L 1.703125 -8.15625 C 2.585938 -7.550781 3.613281 -7.019531 4.78125 -6.5625 C 5.957031 -6.101562 7.113281 -5.875 8.25 -5.875 C 9.707031 -5.875 10.882812 -6.273438 11.78125 -7.078125 C 12.675781 -7.878906 13.125 -9.125 13.125 -10.8125 L 13.125 -33.59375 L 19.671875 -33.59375 L 19.671875 -10.234375 C 19.671875 -7.773438 19.242188 -5.742188 18.390625 -4.140625 C 17.535156 -2.535156 16.347656 -1.351562 14.828125 -0.59375 C 13.304688 0.15625 11.539062 0.53125 9.53125 0.53125 Z M 9.53125 0.53125 "/></g></g></g><g fill="#ffffff" fill-opacity="1"><g transform="translate(77.318089, 223.857597)"><g><path d="M 14.875 0.65625 C 12.300781 0.65625 10.019531 0.101562 8.03125 -1 C 6.039062 -2.101562 4.488281 -3.613281 3.375 -5.53125 C 2.257812 -7.445312 1.703125 -9.617188 1.703125 -12.046875 L 1.703125 -12.09375 C 1.703125 -14.519531 2.257812 -16.6875 3.375 -18.59375 C 4.488281 -20.5 6.035156 -22 8.015625 -23.09375 C 9.992188 -24.1875 12.28125 -24.734375 14.875 -24.734375 C 17.46875 -24.734375 19.757812 -24.1875 21.75 -23.09375 C 23.738281 -22 25.289062 -20.5 26.40625 -18.59375 C 27.519531 -16.6875 28.078125 -14.519531 28.078125 -12.09375 L 28.078125 -12.046875 C 28.078125 -9.617188 27.519531 -7.445312 26.40625 -5.53125 C 25.289062 -3.613281 23.738281 -2.101562 21.75 -1 C 19.757812 0.101562 17.46875 0.65625 14.875 0.65625 Z M 14.875 -5.21875 C 16.195312 -5.21875 17.347656 -5.519531 18.328125 -6.125 C 19.304688 -6.738281 20.070312 -7.5625 20.625 -8.59375 C 21.175781 -9.625 21.453125 -10.773438 21.453125 -12.046875 L 21.453125 -12.140625 C 21.453125 -13.410156 21.179688 -14.546875 20.640625 -15.546875 C 20.109375 -16.554688 19.351562 -17.359375 18.375 -17.953125 C 17.394531 -18.546875 16.226562 -18.84375 14.875 -18.84375 C 13.539062 -18.84375 12.382812 -18.546875 11.40625 -17.953125 C 10.425781 -17.359375 9.660156 -16.554688 9.109375 -15.546875 C 8.554688 -14.546875 8.28125 -13.410156 8.28125 -12.140625 L 8.28125 -12.046875 C 8.28125 -10.773438 8.554688 -9.625 9.109375 -8.59375 C 9.660156 -7.5625 10.429688 -6.738281 11.421875 -6.125 C 12.421875 -5.519531 13.570312 -5.21875 14.875 -5.21875 Z M 14.875 -5.21875 "/></g></g></g><g fill="#ffffff" fill-opacity="1"><g transform="translate(105.479245, 223.857597)"><g><path d="M 13.25 -24.734375 C 14.71875 -24.734375 16.113281 -24.585938 17.4375 -24.296875 C 18.757812 -24.003906 19.929688 -23.503906 20.953125 -22.796875 C 21.972656 -22.097656 22.78125 -21.160156 23.375 -19.984375 C 23.96875 -18.804688 24.265625 -17.320312 24.265625 -15.53125 L 24.265625 0 L 17.6875 0 L 17.6875 -14.75 C 17.6875 -16.238281 17.289062 -17.289062 16.5 -17.90625 C 15.71875 -18.53125 14.550781 -18.84375 13 -18.84375 C 12.445312 -18.84375 11.796875 -18.804688 11.046875 -18.734375 C 10.304688 -18.671875 9.566406 -18.570312 8.828125 -18.4375 L 8.828125 0 L 2.234375 0 L 2.234375 -33.59375 L 8.828125 -33.59375 L 8.828125 -24.4375 C 9.703125 -24.519531 10.519531 -24.585938 11.28125 -24.640625 C 12.039062 -24.703125 12.695312 -24.734375 13.25 -24.734375 Z M 13.25 -24.734375 "/></g></g></g><g fill="#ffffff" fill-opacity="1"><g transform="translate(130.410112, 223.857597)"><g><path d="M 8.828125 0 L 2.234375 0 L 2.234375 -23.484375 C 3.554688 -23.734375 4.914062 -23.945312 6.3125 -24.125 C 7.707031 -24.300781 9.019531 -24.445312 10.25 -24.5625 C 11.476562 -24.675781 12.492188 -24.734375 13.296875 -24.734375 C 15.253906 -24.734375 17.066406 -24.460938 18.734375 -23.921875 C 20.410156 -23.378906 21.75 -22.4375 22.75 -21.09375 C 23.757812 -19.757812 24.265625 -17.90625 24.265625 -15.53125 L 24.265625 0 L 17.734375 0 L 17.734375 -14.75 C 17.734375 -16.238281 17.332031 -17.289062 16.53125 -17.90625 C 15.726562 -18.53125 14.550781 -18.84375 13 -18.84375 C 12.425781 -18.84375 11.78125 -18.804688 11.0625 -18.734375 C 10.34375 -18.671875 9.597656 -18.570312 8.828125 -18.4375 Z M 8.828125 0 "/></g></g></g><g fill="#ffffff" fill-opacity="1"><g transform="translate(155.382394, 223.857597)"><g/></g></g><g fill="#ffffff" fill-opacity="1"><g transform="translate(160.80726, 223.857597)"><g><path d="M 33.671875 0 L 26.921875 0 L 23.90625 -8.53125 L 10.3125 -8.53125 L 7.296875 0 L 0.578125 0 L 13.125 -33.59375 L 21.046875 -33.59375 Z M 21.875 -14.125 L 17.0625 -27.21875 L 12.296875 -14.125 Z M 21.875 -14.125 "/></g></g></g><g fill="#ffffff" fill-opacity="1"><g transform="translate(193.482543, 223.857597)"><g><path d="M 8.828125 0 L 2.234375 0 L 2.234375 -33.59375 L 8.828125 -33.59375 Z M 8.828125 0 "/></g></g></g><g fill="#ffffff" fill-opacity="1"><g transform="translate(202.965986, 223.857597)"><g><path d="M 26.296875 -11.09375 L 26.296875 -10.515625 L 8.484375 -10.515625 C 8.816406 -9.003906 9.554688 -7.726562 10.703125 -6.6875 C 11.847656 -5.65625 13.320312 -5.140625 15.125 -5.140625 C 16.582031 -5.140625 17.925781 -5.363281 19.15625 -5.8125 C 20.382812 -6.269531 21.425781 -6.804688 22.28125 -7.421875 L 25.140625 -2.3125 C 23.953125 -1.570312 22.515625 -0.894531 20.828125 -0.28125 C 19.148438 0.320312 17.148438 0.625 14.828125 0.625 C 12.179688 0.625 9.867188 0.09375 7.890625 -0.96875 C 5.910156 -2.03125 4.375 -3.515625 3.28125 -5.421875 C 2.195312 -7.328125 1.65625 -9.535156 1.65625 -12.046875 L 1.65625 -12.09375 C 1.65625 -14.582031 2.164062 -16.769531 3.1875 -18.65625 C 4.207031 -20.550781 5.640625 -22.035156 7.484375 -23.109375 C 9.335938 -24.191406 11.523438 -24.734375 14.046875 -24.734375 C 16.585938 -24.734375 18.773438 -24.1875 20.609375 -23.09375 C 22.441406 -22 23.847656 -20.4375 24.828125 -18.40625 C 25.804688 -16.382812 26.296875 -13.945312 26.296875 -11.09375 Z M 14 -19.390625 C 12.5625 -19.390625 11.363281 -18.929688 10.40625 -18.015625 C 9.457031 -17.109375 8.832031 -15.960938 8.53125 -14.578125 L 19.59375 -14.578125 C 19.34375 -15.960938 18.75 -17.109375 17.8125 -18.015625 C 16.875 -18.929688 15.601562 -19.390625 14 -19.390625 Z M 14 -19.390625 "/></g></g></g><g fill="#ffffff" fill-opacity="1"><g transform="translate(229.38776, 223.857597)"><g><path d="M 8.828125 0 L 2.234375 0 L 2.234375 -23.484375 C 3.554688 -23.734375 4.914062 -23.945312 6.3125 -24.125 C 7.707031 -24.300781 9.019531 -24.445312 10.25 -24.5625 C 11.476562 -24.675781 12.492188 -24.734375 13.296875 -24.734375 C 15.253906 -24.734375 17.066406 -24.460938 18.734375 -23.921875 C 20.410156 -23.378906 21.75 -22.4375 22.75 -21.09375 C 23.757812 -19.757812 24.265625 -17.90625 24.265625 -15.53125 L 24.265625 0 L 17.734375 0 L 17.734375 -14.75 C 17.734375 -16.238281 17.332031 -17.289062 16.53125 -17.90625 C 15.726562 -18.53125 14.550781 -18.84375 13 -18.84375 C 12.425781 -18.84375 11.78125 -18.804688 11.0625 -18.734375 C 10.34375 -18.671875 9.597656 -18.570312 8.828125 -18.4375 Z M 8.828125 0 "/></g></g></g><g fill="#ffffff" fill-opacity="1"><g transform="translate(254.360049, 223.857597)"><g><path d="M 14.578125 0.625 C 11.984375 0.625 9.71875 0.09375 7.78125 -0.96875 C 5.851562 -2.03125 4.347656 -3.515625 3.265625 -5.421875 C 2.191406 -7.328125 1.65625 -9.523438 1.65625 -12.015625 L 1.65625 -12.09375 C 1.65625 -14.582031 2.1875 -16.769531 3.25 -18.65625 C 4.3125 -20.550781 5.816406 -22.035156 7.765625 -23.109375 C 9.710938 -24.191406 11.984375 -24.734375 14.578125 -24.734375 C 16.015625 -24.734375 17.460938 -24.550781 18.921875 -24.1875 C 20.390625 -23.832031 21.691406 -23.335938 22.828125 -22.703125 L 20.21875 -17.8125 C 19.414062 -18.25 18.570312 -18.59375 17.6875 -18.84375 C 16.800781 -19.09375 15.875 -19.21875 14.90625 -19.21875 C 12.8125 -19.21875 11.179688 -18.546875 10.015625 -17.203125 C 8.859375 -15.867188 8.28125 -14.164062 8.28125 -12.09375 L 8.28125 -12.015625 C 8.28125 -9.972656 8.859375 -8.265625 10.015625 -6.890625 C 11.179688 -5.523438 12.8125 -4.84375 14.90625 -4.84375 C 15.875 -4.84375 16.789062 -4.957031 17.65625 -5.1875 C 18.53125 -5.425781 19.382812 -5.769531 20.21875 -6.21875 L 22.78125 -1.328125 C 21.675781 -0.722656 20.390625 -0.25 18.921875 0.09375 C 17.460938 0.445312 16.015625 0.625 14.578125 0.625 Z M 14.578125 0.625 "/></g></g></g><g fill="#ffffff" fill-opacity="1"><g transform="translate(276.599007, 223.857597)"><g><path d="M 13.34375 -24.609375 C 15.550781 -24.609375 17.46875 -24.3125 19.09375 -23.71875 C 20.726562 -23.125 21.992188 -22.140625 22.890625 -20.765625 C 23.785156 -19.398438 24.234375 -17.546875 24.234375 -15.203125 L 24.234375 -0.5 C 22.597656 -0.132812 20.800781 0.144531 18.84375 0.34375 C 16.882812 0.550781 15.09375 0.65625 13.46875 0.65625 C 11.03125 0.65625 8.925781 0.410156 7.15625 -0.078125 C 5.394531 -0.578125 4.035156 -1.390625 3.078125 -2.515625 C 2.128906 -3.648438 1.65625 -5.144531 1.65625 -7 L 1.65625 -7.078125 C 1.65625 -9.617188 2.609375 -11.484375 4.515625 -12.671875 C 6.421875 -13.859375 9.003906 -14.453125 12.265625 -14.453125 C 13.148438 -14.453125 14.023438 -14.429688 14.890625 -14.390625 C 15.765625 -14.347656 16.679688 -14.257812 17.640625 -14.125 L 17.640625 -15 C 17.640625 -16.488281 17.140625 -17.535156 16.140625 -18.140625 C 15.148438 -18.742188 13.742188 -19.046875 11.921875 -19.046875 C 10.734375 -19.046875 9.367188 -18.898438 7.828125 -18.609375 C 6.285156 -18.328125 4.863281 -17.921875 3.5625 -17.390625 L 5.015625 -23.234375 C 5.617188 -23.484375 6.375 -23.710938 7.28125 -23.921875 C 8.195312 -24.128906 9.1875 -24.296875 10.25 -24.421875 C 11.3125 -24.546875 12.34375 -24.609375 13.34375 -24.609375 Z M 8.40625 -7.421875 L 8.40625 -7.328125 C 8.40625 -6.304688 8.867188 -5.570312 9.796875 -5.125 C 10.722656 -4.6875 12.023438 -4.46875 13.703125 -4.46875 C 14.867188 -4.46875 16.179688 -4.582031 17.640625 -4.8125 L 17.640625 -9.9375 C 16.984375 -10.050781 16.296875 -10.132812 15.578125 -10.1875 C 14.859375 -10.238281 14.234375 -10.265625 13.703125 -10.265625 C 12.046875 -10.265625 10.75 -10.050781 9.8125 -9.625 C 8.875 -9.195312 8.40625 -8.460938 8.40625 -7.421875 Z M 8.40625 -7.421875 "/></g></g></g><g fill="#ffffff" fill-opacity="1"><g transform="translate(301.405631, 223.857597)"><g><path d="M 8.828125 0 L 2.234375 0 L 2.234375 -22.859375 C 3.390625 -23.109375 4.582031 -23.300781 5.8125 -23.4375 C 7.039062 -23.582031 8.191406 -23.675781 9.265625 -23.71875 C 10.347656 -23.757812 11.25 -23.78125 11.96875 -23.78125 L 16.609375 -23.78125 L 16.609375 -17.734375 L 13.046875 -17.734375 C 12.710938 -17.734375 12.242188 -17.710938 11.640625 -17.671875 C 11.035156 -17.628906 10.460938 -17.585938 9.921875 -17.546875 C 9.378906 -17.503906 9.015625 -17.453125 8.828125 -17.390625 Z M 8.828125 0 "/></g></g></g></svg>